HIERARCHY
ROOT pelvis
{
	OFFSET 0.000000 0.000000 0.000000
	CHANNELS 6 Xposition Yposition Zposition Zrotation Yrotation Xrotation
	JOINT left_hip
	{
		OFFSET 0.055779 -0.080629 -0.017705
		CHANNELS 3 Zrotation Yrotation Xrotation
		JOINT left_knee
		{
			OFFSET 0.039469 -0.359247 0.009008
			CHANNELS 3 Zrotation Yrotation Xrotation
			JOINT left_ankle
			{
				OFFSET -0.013809 -0.389899 -0.036404
				CHANNELS 3 Zrotation Yrotation Xrotation
				JOINT left_foot
				{
					OFFSET 0.037897 -0.056346 0.116500
					CHANNELS 3 Zrotation Yrotation Xrotation
					End Site
					{
						OFFSET 0.000000 0.000000 0.000000
					}
				}
			}
		}
	}
	JOINT right_hip
	{
		OFFSET -0.057787 -0.088871 -0.013401
		CHANNELS 3 Zrotation Yrotation Xrotation
		JOINT right_knee
		{
			OFFSET -0.039496 -0.356943 -0.002206
			CHANNELS 3 Zrotation Yrotation Xrotation
			JOINT right_ankle
			{
				OFFSET 0.017959 -0.383749 -0.033094
				CHANNELS 3 Zrotation Yrotation Xrotation
				JOINT right_foot
				{
					OFFSET -0.031235 -0.058281 0.124713
					CHANNELS 3 Zrotation Yrotation Xrotation
					End Site
					{
						OFFSET 0.000000 0.000000 0.000000
					}
				}
			}
		}
	}
	JOINT spine1
	{
		OFFSET 0.004196 0.122659 -0.034271
		CHANNELS 3 Zrotation Yrotation Xrotation
		JOINT spine2
		{
			OFFSET 0.005122 0.143143 0.029537
			CHANNELS 3 Zrotation Yrotation Xrotation
			JOINT spine3
			{
				OFFSET -0.001923 0.057757 0.004628
				CHANNELS 3 Zrotation Yrotation Xrotation
				JOINT neck
				{
					OFFSET -0.013781 0.203940 -0.035143
					CHANNELS 3 Zrotation Yrotation Xrotation
					JOINT head
					{
						OFFSET 0.009065 0.086539 0.049216
						CHANNELS 3 Zrotation Yrotation Xrotation
						End Site
						{
							OFFSET 0.000000 0.000000 0.000000
						}
					}
				}
				JOINT left_collar
				{
					OFFSET 0.070315 0.109742 -0.020357
					CHANNELS 3 Zrotation Yrotation Xrotation
					JOINT left_shoulder
					{
						OFFSET 0.122280 0.043464 -0.020451
						CHANNELS 3 Zrotation Yrotation Xrotation
						JOINT left_elbow
						{
							OFFSET 0.245347 -0.013316 -0.020298
							CHANNELS 3 Zrotation Yrotation Xrotation
							JOINT left_wrist
							{
								OFFSET 0.251466 0.010925 -0.008411
								CHANNELS 3 Zrotation Yrotation Xrotation
								End Site
								{
									OFFSET 0.000000 0.000000 0.000000
								}
							}
						}
					}
				}
				JOINT right_collar
				{
					OFFSET -0.083386 0.108780 -0.024575
					CHANNELS 3 Zrotation Yrotation Xrotation
					JOINT right_shoulder
					{
						OFFSET -0.112806 0.044731 -0.008805
						CHANNELS 3 Zrotation Yrotation Xrotation
						JOINT right_elbow
						{
							OFFSET -0.248827 -0.010357 -0.028458
							CHANNELS 3 Zrotation Yrotation Xrotation
							JOINT right_wrist
							{
								OFFSET -0.255561 0.006434 -0.006231
								CHANNELS 3 Zrotation Yrotation Xrotation
								End Site
								{
									OFFSET 0.000000 0.000000 0.000000
								}
							}
						}
					}
				}
			}
		}
	}
}
MOTION
Frames: 15
Frame Time: 0.033333
-0.179102 0.876330 -1.219829 0.000000 0.000000 0.000000 -1.808735 0.171582 -6.943201 -0.014805 -0.091331 7.012969 0.486877 -0.053743 -0.074499 0.000000 0.000000 0.000000 -0.869885 -0.002616 -1.924090 -0.006176 -0.072386 -2.078622 -0.443870 0.131264 3.997931 0.000000 0.000000 0.000000 -1.744357 -0.047630 -0.003246 0.000000 0.000000 0.000000 -0.481566 -0.083395 0.001209 0.000000 0.000000 0.000000 0.000000 0.000000 0.000000 0.000000 0.000000 0.000000 0.000000 0.000000 0.000000 0.000000 0.000000 0.000000 0.000000 0.000000 0.000000 0.000000 0.000000 0.000000 0.000000 0.000000 0.000000 0.000000 0.000000 0.000000 0.000000 0.000000 0.000000
-0.187259 0.852911 -1.222365 -3.879800 1.636200 3.907100 9.069333 -0.857037 -24.943481 -0.220211 -0.641280 46.393868 1.807297 10.781918 -19.179455 0.000000 0.000000 0.000000 -3.800403 3.484838 -24.643192 0.126309 0.582996 44.330997 -2.279235 -11.189845 -15.177265 0.000000 0.000000 0.000000 -0.927982 3.130811 3.936415 0.000000 0.000000 0.000000 2.072301 0.926446 -7.128597 -6.552899 -4.033500 11.575867 9.410465 -6.378895 -14.861207 0.000000 0.000000 0.000000 -79.955339 -5.439006 16.437592 13.197929 -20.270542 -5.331237 -0.623670 -3.105332 22.707000 0.000000 0.000000 0.000000 72.039916 -3.393341 23.017771 -19.695755 28.011706 -9.183748 0.099096 1.259283 8.998631
-0.187365 0.852758 -1.222511 -3.942800 1.661000 3.907700 9.145641 -0.844994 -25.035310 -0.219934 -0.641887 46.500889 1.812918 10.776031 -19.158766 0.000000 0.000000 0.000000 -3.732741 3.470925 -24.647615 0.123909 0.580610 44.325673 -2.270959 -11.204245 -15.155171 0.000000 0.000000 0.000000 -0.860437 3.019682 3.914514 0.000000 0.000000 0.000000 2.078730 0.896803 -7.166172 -6.651202 -4.040603 11.415455 9.372859 -6.449091 -13.781715 0.000000 0.000000 0.000000 -79.984043 -5.428541 16.264960 13.144078 -20.199650 -5.302350 -0.633586 -3.128887 22.889356 0.000000 0.000000 0.000000 72.052879 -3.376789 23.093311 -19.616258 27.926523 -9.133092 0.098105 1.253009 8.953459
-0.187425 0.852564 -1.222616 -3.967100 1.646900 3.892400 9.168520 -0.861629 -25.056629 -0.220523 -0.642621 46.566406 1.812131 10.799815 -19.185845 0.000000 0.000000 0.000000 -3.703721 3.462736 -24.640472 0.126201 0.582964 44.339098 -2.277566 -11.261016 -15.144849 0.000000 0.000000 0.000000 -0.838544 2.987825 3.934176 0.000000 0.000000 0.000000 2.089556 0.890621 -7.174491 -6.708204 -4.081800 11.375037 9.283636 -6.577490 -13.156739 0.000000 0.000000 0.000000 -80.035550 -5.482848 16.139845 13.085817 -20.123143 -5.270899 -0.643643 -3.152566 23.072931 0.000000 0.000000 0.000000 72.069805 -3.314091 23.095455 -19.580720 27.888112 -9.110432 0.097238 1.247494 8.913730
-0.187414 0.852376 -1.222647 -3.950800 1.618300 3.859200 9.147045 -0.869866 -25.036884 -0.220199 -0.643914 46.597626 1.813765 10.828745 -19.207970 0.000000 0.000000 0.000000 -3.723692 3.509205 -24.638062 0.129640 0.586513 44.399540 -2.290456 -11.239720 -15.180356 0.000000 0.000000 0.000000 -0.899529 3.008282 3.971351 0.000000 0.000000 0.000000 2.097853 0.894256 -7.164737 -6.809398 -4.101395 11.443601 9.327796 -6.637304 -12.797311 0.000000 0.000000 0.000000 -80.081826 -5.538958 16.208953 13.086802 -20.124424 -5.271400 -0.638399 -3.140242 22.977374 0.000000 0.000000 0.000000 72.109881 -3.364503 23.080677 -19.661369 27.974944 -9.161876 0.096983 1.245865 8.901942
-0.187473 0.852195 -1.222616 -3.956100 1.558700 3.803200 9.142427 -0.846413 -24.984913 -0.222923 -0.644853 46.635142 1.826084 10.899713 -19.194345 0.000000 0.000000 0.000000 -3.726736 3.507688 -24.639924 0.129777 0.587118 44.480554 -2.278202 -11.162960 -15.225634 0.000000 0.000000 0.000000 -0.926243 3.015684 4.058229 0.000000 0.000000 0.000000 2.116245 0.896144 -7.126986 -6.832003 -4.144999 11.438321 9.268426 -6.740467 -12.632242 0.000000 0.000000 0.000000 -80.147933 -5.594222 16.267916 13.136272 -20.189607 -5.298233 -0.629561 -3.119360 22.815508 0.000000 0.000000 0.000000 72.105456 -3.229084 23.191868 -19.648985 27.961572 -9.153952 0.096167 1.240647 8.864385
-0.187477 0.851991 -1.222564 -3.929500 1.485500 3.750000 9.101730 -0.818100 -24.946017 -0.224093 -0.646246 46.698367 1.830862 10.939609 -19.212438 0.000000 0.000000 0.000000 -3.759993 3.542187 -24.661947 0.130462 0.588336 44.580477 -2.281951 -11.180543 -15.233622 0.000000 0.000000 0.000000 -1.004523 3.045301 4.136722 0.000000 0.000000 0.000000 2.120799 0.905644 -7.136276 -6.816902 -4.151900 11.565771 9.214138 -6.779237 -12.636193 0.000000 0.000000 0.000000 -80.174396 -5.605420 16.444451 13.191682 -20.262258 -5.328307 -0.625156 -3.108873 22.734428 0.000000 0.000000 0.000000 72.143323 -3.239207 23.259240 -19.712647 28.030043 -9.194574 0.095646 1.237300 8.840218
-0.187427 0.851750 -1.222553 -3.888900 1.439800 3.723800 9.047147 -0.779076 -24.939163 -0.225379 -0.647453 46.754389 1.831438 10.946014 -19.240839 0.000000 0.000000 0.000000 -3.815383 3.513935 -24.708956 0.131253 0.589561 44.681100 -2.273638 -11.139971 -15.295946 0.000000 0.000000 0.000000 -1.093967 3.047703 4.186161 0.000000 0.000000 0.000000 2.136900 0.896524 -7.134398 -6.868396 -4.151998 11.633156 9.203946 -6.790841 -12.603358 0.000000 0.000000 0.000000 -80.201722 -5.624023 16.492037 13.217136 -20.296160 -5.337721 -0.622923 -3.103557 22.693236 0.000000 0.000000 0.000000 72.156529 -3.180543 23.304211 -19.699337 28.015720 -9.186070 0.094969 1.232938 8.808806
-0.187473 0.851443 -1.222501 -3.911700 1.433200 3.677800 9.068839 -0.760203 -24.948946 -0.226342 -0.648875 46.856520 1.834666 10.968514 -19.269514 0.000000 0.000000 0.000000 -3.792338 3.518771 -24.709294 0.132082 0.590851 44.773422 -2.278803 -11.173244 -15.316420 0.000000 0.000000 0.000000 -1.078887 3.010506 4.269844 0.000000 0.000000 0.000000 2.115851 0.892310 -7.137990 -6.934107 -4.149800 11.707025 9.231408 -6.776208 -12.661901 0.000000 0.000000 0.000000 -80.220561 -5.698645 16.352667 13.170189 -20.233910 -5.316498 -0.626493 -3.112060 22.759043 0.000000 0.000000 0.000000 72.170474 -3.126935 23.344412 -19.692516 28.008366 -9.181734 0.094775 1.231693 8.799889
-0.187470 0.851069 -1.222449 -3.918300 1.439600 3.635400 9.073763 -0.727056 -24.979549 -0.227526 -0.650588 46.980858 1.839693 10.986359 -19.298187 0.000000 0.000000 0.000000 -3.783629 3.514042 -24.706754 0.132908 0.591856 44.842040 -2.284862 -11.197044 -15.325570 0.000000 0.000000 0.000000 -1.086869 2.935651 4.360884 0.000000 0.000000 0.000000 2.133172 0.871769 -7.135470 -7.036397 -4.137899 11.672854 9.276680 -6.742458 -12.569337 0.000000 0.000000 0.000000 -80.257690 -5.774594 16.062598 13.110448 -20.155539 -5.284230 -0.633734 -3.129249 22.892069 0.000000 0.000000 0.000000 72.156834 -3.056031 23.377317 -19.690129 28.005642 -9.180898 0.094366 1.229039 8.780776
-0.187611 0.850705 -1.222418 -3.990100 1.446000 3.599800 9.158826 -0.703547 -25.042718 -0.228863 -0.652498 47.125902 1.840313 10.991178 -19.346091 0.000000 0.000000 0.000000 -3.690216 3.473679 -24.713137 0.133267 0.592364 44.883750 -2.310773 -11.386623 -15.235834 0.000000 0.000000 0.000000 -0.998712 2.854951 4.468317 0.000000 0.000000 0.000000 2.148468 0.859491 -7.163040 -7.098003 -4.125801 11.727622 9.216411 -6.720241 -12.660111 0.000000 0.000000 0.000000 -80.306355 -5.807361 15.853992 13.072119 -20.104632 -5.266576 -0.639784 -3.143505 23.002695 0.000000 0.000000 0.000000 72.117690 -3.002291 23.463030 -19.682586 27.997280 -9.179737 0.093909 1.226085 8.759471
-0.187537 0.850470 -1.222428 -3.962500 1.455400 3.578500 9.125156 -0.672996 -25.069449 -0.230673 -0.654522 47.196637 1.838645 10.976539 -19.364083 0.000000 0.000000 0.000000 -3.725142 3.441305 -24.742804 0.133730 0.593227 44.971268 -2.310768 -11.392892 -15.249050 0.000000 0.000000 0.000000 -1.036829 2.884810 4.553683 0.000000 0.000000 0.000000 2.100430 0.859010 -7.162969 -7.129294 -4.125601 11.816259 9.300076 -6.702897 -12.880137 0.000000 0.000000 0.000000 -80.290451 -5.891589 15.949776 13.055849 -20.083893 -5.253349 -0.640740 -3.145752 23.020078 0.000000 0.000000 0.000000 72.147852 -2.973372 23.392663 -19.680902 27.995223 -9.180798 0.094577 1.230410 8.790583
-0.187536 0.850293 -1.222511 -3.950100 1.434200 3.597500 9.113274 -0.645076 -25.109302 -0.228520 -0.652591 47.227417 1.838983 10.970882 -19.369414 0.000000 0.000000 0.000000 -3.739499 3.449394 -24.804764 0.134154 0.593804 45.027280 -2.311379 -11.406313 -15.251422 0.000000 0.000000 0.000000 -1.078003 2.925959 4.578662 0.000000 0.000000 0.000000 2.111921 0.870295 -7.196095 -7.141405 -4.140390 11.876847 9.338234 -6.723945 -13.022530 0.000000 0.000000 0.000000 -80.288568 -5.916705 16.073426 13.055745 -20.083457 -5.254602 -0.641384 -3.147274 23.031834 0.000000 0.000000 0.000000 72.142274 -3.057595 23.364432 -19.723584 28.041783 -9.201597 0.092878 1.219374 8.711118
-0.187438 0.850183 -1.222574 -3.892200 1.407500 3.609700 9.040226 -0.639506 -25.093271 -0.224661 -0.648736 47.222169 1.845177 11.004967 -19.359795 0.000000 0.000000 0.000000 -3.811034 3.427149 -24.846137 0.134682 0.594576 45.082094 -2.314247 -11.406700 -15.269731 0.000000 0.000000 0.000000 -1.164636 2.958368 4.594927 0.000000 0.000000 0.000000 2.091031 0.877007 -7.210369 -7.125201 -4.136202 11.786438 9.372361 -6.715185 -12.966287 0.000000 0.000000 0.000000 -80.267105 -5.913436 16.192415 13.108311 -20.152782 -5.283081 -0.635281 -3.132900 22.920403 0.000000 0.000000 0.000000 72.148398 -3.091219 23.364110 -19.738931 28.058817 -9.205193 0.093088 1.220745 8.721035
-0.187403 0.850052 -1.222710 -3.864800 1.392200 3.641000 9.014122 -0.625569 -25.134702 -0.227853 -0.651631 47.237107 1.844701 11.012978 -19.374842 0.000000 0.000000 0.000000 -3.837346 3.453325 -24.925740 0.135240 0.595541 45.153912 -2.326294 -11.447851 -15.267302 0.000000 0.000000 0.000000 -1.219974 2.980286 4.585816 0.000000 0.000000 0.000000 2.089350 0.886619 -7.191016 -7.071904 -4.142394 11.645246 9.349187 -6.716062 -12.924307 0.000000 0.000000 0.000000 -80.251021 -5.942732 16.191186 13.135338 -20.188212 -5.298196 -0.628996 -3.118019 22.805159 0.000000 0.000000 0.000000 72.132236 -3.083203 23.265554 -19.724428 28.042847 -9.200542 0.094861 1.232243 8.803852
